<svg width="42" height="42" viewBox="0 0 42 42" fill="none" xmlns="http://www.w3.org/2000/svg">
<path d="M23.1318 20.055C22.8895 20.0182 22.6448 19.9997 22.3998 19.9998H5.5998C4.32677 19.9998 3.10587 20.5055 2.20569 21.4057C1.30552 22.3059 0.799805 23.5268 0.799805 24.7998V28.3998C0.799805 33.3294 5.811 36.7998 13.9998 36.7998C15.7566 36.7998 17.3694 36.639 18.8142 36.339C18.0114 34.6029 17.597 32.7125 17.5998 30.7998C17.5998 26.3694 19.7838 22.4478 23.1318 20.055ZM30.7998 17.5998C32.3911 17.5998 33.9172 16.9677 35.0424 15.8424C36.1677 14.7172 36.7998 13.1911 36.7998 11.5998C36.7998 10.0085 36.1677 8.48238 35.0424 7.35716C33.9172 6.23195 32.3911 5.5998 30.7998 5.5998C29.2085 5.5998 27.6824 6.23195 26.5572 7.35716C25.4319 8.48238 24.7998 10.0085 24.7998 11.5998C24.7998 13.1911 25.4319 14.7172 26.5572 15.8424C27.6824 16.9677 29.2085 17.5998 30.7998 17.5998ZM22.3998 9.1998C22.3998 6.97199 21.5148 4.83541 19.9395 3.26011C18.3642 1.6848 16.2276 0.799805 13.9998 0.799805C11.772 0.799805 9.63541 1.6848 8.06011 3.26011C6.4848 4.83541 5.5998 6.97199 5.5998 9.1998C5.5998 11.4276 6.4848 13.5642 8.06011 15.1395C9.63541 16.7148 11.772 17.5998 13.9998 17.5998C16.2276 17.5998 18.3642 16.7148 19.9395 15.1395C21.5148 13.5642 22.3998 11.4276 22.3998 9.1998ZM41.5998 30.7998C41.5998 33.6641 40.4619 36.4112 38.4366 38.4366C36.4112 40.4619 33.6641 41.5998 30.7998 41.5998C27.9355 41.5998 25.1884 40.4619 23.1631 38.4366C21.1377 36.4112 19.9998 33.6641 19.9998 30.7998C19.9998 27.9355 21.1377 25.1884 23.1631 23.1631C25.1884 21.1377 27.9355 19.9998 30.7998 19.9998C33.6641 19.9998 36.4112 21.1377 38.4366 23.1631C40.4619 25.1884 41.5998 27.9355 41.5998 30.7998ZM36.4494 26.3502C36.3379 26.2385 36.2055 26.1498 36.0597 26.0893C35.9139 26.0288 35.7576 25.9977 35.5998 25.9977C35.442 25.9977 35.2857 26.0288 35.1399 26.0893C34.9941 26.1498 34.8617 26.2385 34.7502 26.3502L28.3998 32.703L26.8494 31.1502C26.6241 30.9249 26.3185 30.7983 25.9998 30.7983C25.6811 30.7983 25.3755 30.9249 25.1502 31.1502C24.9249 31.3755 24.7983 31.6811 24.7983 31.9998C24.7983 32.3185 24.9249 32.6241 25.1502 32.8494L27.5502 35.2494C27.6617 35.3612 27.7941 35.4498 27.9399 35.5103C28.0857 35.5708 28.242 35.6019 28.3998 35.6019C28.5576 35.6019 28.7139 35.5708 28.8597 35.5103C29.0055 35.4498 29.1379 35.3612 29.2494 35.2494L36.4494 28.0494C36.5612 27.9379 36.6498 27.8055 36.7103 27.6597C36.7708 27.5139 36.8019 27.3576 36.8019 27.1998C36.8019 27.042 36.7708 26.8857 36.7103 26.7399C36.6498 26.5941 36.5612 26.4617 36.4494 26.3502Z" fill="#4770FF"/>
</svg>
