<svg width="18" height="14" viewBox="0 0 18 14" fill="none" xmlns="http://www.w3.org/2000/svg">
<path d="M16.2 11.375C16.2 11.6071 16.1052 11.8296 15.9364 11.9937C15.7676 12.1578 15.5387 12.25 15.3 12.25C15.0613 12.25 14.8324 12.1578 14.6636 11.9937C14.4948 11.8296 14.4 11.6071 14.4 11.375V0.875C14.4 0.642936 14.3052 0.420376 14.1364 0.256282C13.9676 0.0921874 13.7387 0 13.5 0H0.9C0.661305 0 0.432387 0.0921874 0.263604 0.256282C0.0948211 0.420376 0 0.642936 0 0.875V12.25C0 12.7141 0.189642 13.1592 0.527208 13.4874C0.864773 13.8156 1.32261 14 1.8 14H15.3C16.7886 14 18 12.8223 18 11.375V2.625H16.2V11.375ZM9 2.625H11.7V4.375H9V2.625ZM9 6.125H11.7V7.875H9V6.125ZM2.7 2.625H7.2V7.875H2.7V2.625ZM2.7 11.375V9.625H11.7V11.375H2.7Z" fill="#4770FF"/>
</svg>
