<svg width="44" height="44" viewBox="0 0 44 44" fill="none" xmlns="http://www.w3.org/2000/svg">
<path d="M21.8598 13.5999C19.8102 13.5999 17.979 14.5359 16.7694 15.9999C16.023 16.9045 15.5311 17.9916 15.3443 19.1494C15.1575 20.3072 15.2826 21.4939 15.7067 22.5872C16.1308 23.6806 16.8386 24.6413 17.7573 25.3703C18.6759 26.0993 19.7722 26.5704 20.9334 26.7351C22.5117 23.6904 25.2099 21.3768 28.4598 20.2815V20.1999C28.4598 18.6039 27.8934 17.1399 26.9502 15.9999C25.7406 14.5359 23.9094 13.5999 21.8598 13.5999ZM42.6846 24.2127C41.2473 22.5307 39.4095 21.2378 37.3407 20.4534C35.2719 19.669 33.0389 19.4184 30.8478 19.7247C30.7814 18.4233 30.4317 17.1521 29.823 15.9999H39.8598C40.8145 15.9999 41.7302 16.3792 42.4053 17.0543C43.0805 17.7294 43.4598 18.6451 43.4598 19.5999V20.7999C43.4598 21.9519 43.1958 23.1135 42.6846 24.2127ZM19.9566 29.1999C19.6326 30.3447 19.4598 31.5519 19.4598 32.7999C19.4598 37.1127 21.5262 40.9407 24.7254 43.3479C23.7797 43.5178 22.8206 43.6021 21.8598 43.5999C14.3238 43.5999 9.85977 38.7303 9.85977 33.9999V32.7999C9.8585 32.3268 9.95075 31.8581 10.1312 31.4207C10.3117 30.9834 10.5768 30.586 10.9114 30.2515C11.2459 29.917 11.6433 29.6518 12.0806 29.4714C12.518 29.2909 12.9867 29.1986 13.4598 29.1999H19.9566ZM8.21577 29.8815C3.15177 28.5111 0.259766 24.6087 0.259766 20.7999V19.5999C0.259766 18.6451 0.63905 17.7294 1.31418 17.0543C1.98931 16.3792 2.90499 15.9999 3.85977 15.9999H13.899C13.2147 17.294 12.8579 18.736 12.8598 20.1999C12.8582 21.4392 13.1132 22.6655 13.6089 23.8014C14.1046 24.9373 14.8301 25.9582 15.7398 26.7999H13.4598C12.3904 26.7996 11.3403 27.0852 10.4183 27.627C9.49635 28.1688 8.73592 28.9471 8.21577 29.8815ZM12.2598 0.399902C14.0102 0.399902 15.6889 1.09526 16.9267 2.333C18.1644 3.57074 18.8598 5.24947 18.8598 6.9999C18.8598 8.75033 18.1644 10.4291 16.9267 11.6668C15.6889 12.9045 14.0102 13.5999 12.2598 13.5999C10.5093 13.5999 8.8306 12.9045 7.59286 11.6668C6.35512 10.4291 5.65977 8.75033 5.65977 6.9999C5.65977 5.24947 6.35512 3.57074 7.59286 2.333C8.8306 1.09526 10.5093 0.399902 12.2598 0.399902ZM31.4598 0.399902C33.2102 0.399902 34.8889 1.09526 36.1267 2.333C37.3644 3.57074 38.0598 5.24947 38.0598 6.9999C38.0598 8.75033 37.3644 10.4291 36.1267 11.6668C34.8889 12.9045 33.2102 13.5999 31.4598 13.5999C29.7093 13.5999 28.0306 12.9045 26.7929 11.6668C25.5551 10.4291 24.8598 8.75033 24.8598 6.9999C24.8598 5.24947 25.5551 3.57074 26.7929 2.333C28.0306 1.09526 29.7093 0.399902 31.4598 0.399902ZM32.6598 43.5999C35.5241 43.5999 38.2711 42.462 40.2965 40.4367C42.3219 38.4113 43.4598 35.6642 43.4598 32.7999C43.4598 29.9356 42.3219 27.1885 40.2965 25.1632C38.2711 23.1378 35.5241 21.9999 32.6598 21.9999C29.7954 21.9999 27.0484 23.1378 25.023 25.1632C22.9976 27.1885 21.8598 29.9356 21.8598 32.7999C21.8598 35.6642 22.9976 38.4113 25.023 40.4367C27.0484 42.462 29.7954 43.5999 32.6598 43.5999ZM32.6598 26.7999C32.978 26.7999 33.2832 26.9263 33.5083 27.1514C33.7333 27.3764 33.8598 27.6816 33.8598 27.9999V31.5999H37.4598C37.778 31.5999 38.0832 31.7263 38.3083 31.9514C38.5333 32.1764 38.6598 32.4816 38.6598 32.7999C38.6598 33.1182 38.5333 33.4234 38.3083 33.6484C38.0832 33.8735 37.778 33.9999 37.4598 33.9999H33.8598V37.5999C33.8598 37.9182 33.7333 38.2234 33.5083 38.4484C33.2832 38.6735 32.978 38.7999 32.6598 38.7999C32.3415 38.7999 32.0363 38.6735 31.8112 38.4484C31.5862 38.2234 31.4598 37.9182 31.4598 37.5999V33.9999H27.8598C27.5415 33.9999 27.2363 33.8735 27.0112 33.6484C26.7862 33.4234 26.6598 33.1182 26.6598 32.7999C26.6598 32.4816 26.7862 32.1764 27.0112 31.9514C27.2363 31.7263 27.5415 31.5999 27.8598 31.5999H31.4598V27.9999C31.4598 27.6816 31.5862 27.3764 31.8112 27.1514C32.0363 26.9263 32.3415 26.7999 32.6598 26.7999Z" fill="#4770FF"/>
</svg>
