<svg xmlns="http://www.w3.org/2000/svg" xmlns:xlink="http://www.w3.org/1999/xlink" width="24" height="24" preserveAspectRatio="xMidYMid meet" viewBox="0 0 24 24" style="-ms-transform: rotate(360deg); -webkit-transform: rotate(360deg); transform: rotate(360deg);"><path class="uim-tertiary" d="M22 10H2v9a3 3 0 0 0 3 3h14a3 3 0 0 0 3-3v-9zM7 8a1 1 0 0 1-1-1V3a1 1 0 0 1 2 0v4a1 1 0 0 1-1 1zm10 0a1 1 0 0 1-1-1V3a1 1 0 0 1 2 0v4a1 1 0 0 1-1 1z" opacity=".5" fill="#4770FF"/><path class="uim-primary" d="M19 4h-1v3a1 1 0 0 1-2 0V4H8v3a1 1 0 0 1-2 0V4H5a3 3 0 0 0-3 3v3h20V7a3 3 0 0 0-3-3z" fill="#626262"/><rect x="0" y="0" width="24" height="24" fill="rgba(0, 0, 0, 0)" /></svg>