<svg width="16" height="16" viewBox="0 0 16 16" fill="none" xmlns="http://www.w3.org/2000/svg">
<path d="M6.35457 6.02664C8.0166 6.02664 9.36393 4.67753 9.36393 3.01332C9.36393 1.34911 8.0166 0 6.35457 0C4.69255 0 3.34521 1.34911 3.34521 3.01332C3.34521 4.67753 4.69255 6.02664 6.35457 6.02664Z" fill="#4770FF"/>
<path d="M7.24252 14.8255C7.07677 14.6614 6.96861 14.4478 6.93425 14.217C6.89989 13.9861 6.94118 13.7503 7.05193 13.5449L7.31776 13.0426L6.77106 12.8769C6.54812 12.807 6.35403 12.6662 6.21825 12.4759C6.08248 12.2856 6.01242 12.0561 6.01872 11.8222V10.7927C6.0183 10.5599 6.09267 10.3331 6.23086 10.1459C6.36905 9.95872 6.56372 9.82099 6.7861 9.75309L7.3328 9.58736L7.07199 9.08514C6.96449 8.88253 6.92358 8.65113 6.9551 8.42388C6.98662 8.19664 7.08896 7.98515 7.24754 7.81955C6.86168 7.76889 6.47307 7.74206 6.08392 7.73919C4.93451 7.7121 3.79328 7.93931 2.74165 8.40462C1.69001 8.86993 0.75387 9.56187 0 10.4311V14.3233C0 14.4565 0.0528427 14.5842 0.146903 14.6784C0.240964 14.7726 0.368538 14.8255 0.50156 14.8255H7.24252Z" fill="#4770FF"/>
<path d="M15.8996 10.627L14.8965 10.3256C14.827 10.0776 14.7294 9.83833 14.6056 9.61249L15.1072 8.67836C15.1265 8.64369 15.1336 8.60346 15.1273 8.56424C15.1209 8.52502 15.1014 8.48913 15.0721 8.4624L14.3448 7.72916C14.3168 7.70186 14.2811 7.68385 14.2425 7.67756C14.2039 7.67127 14.1643 7.67701 14.1291 7.69401L13.2012 8.19623C12.9728 8.07199 12.7326 7.97104 12.484 7.89489L12.1781 6.89045C12.1646 6.85342 12.14 6.82146 12.1077 6.79898C12.0753 6.7765 12.0369 6.76459 11.9975 6.7649H10.9542C10.9151 6.76599 10.8773 6.77911 10.8459 6.80247C10.8145 6.82583 10.791 6.8583 10.7787 6.89548L10.4778 7.89992C10.2244 7.97373 9.98037 8.07653 9.7505 8.20627L8.84268 7.70405C8.80739 7.68527 8.76709 7.67807 8.72748 7.68348C8.68788 7.68889 8.65098 7.70662 8.622 7.73418L7.8847 8.45738C7.85567 8.48539 7.83654 8.52211 7.83021 8.56198C7.82387 8.60185 7.83068 8.6427 7.84959 8.67836L8.35115 9.5924C8.21679 9.81924 8.10748 10.0601 8.02514 10.3106L7.02202 10.6169C6.98407 10.6279 6.95077 10.6511 6.92722 10.6828C6.90366 10.7145 6.89116 10.7532 6.89161 10.7927V11.8223C6.89116 11.8618 6.90366 11.9004 6.92722 11.9322C6.95077 11.9639 6.98407 11.9871 7.02202 11.998L8.02514 12.3044C8.10033 12.5504 8.2012 12.7877 8.32607 13.0125L7.82452 13.9667C7.8056 14.0024 7.79879 14.0432 7.80513 14.0831C7.81146 14.123 7.83059 14.1597 7.85962 14.1877L8.60695 14.9159C8.63593 14.9435 8.67283 14.9612 8.71244 14.9666C8.75204 14.972 8.79234 14.9648 8.82763 14.9461L9.76555 14.4438C9.98876 14.5641 10.2242 14.66 10.4677 14.7301L10.7687 15.7597C10.7813 15.7976 10.8055 15.8307 10.8379 15.8541C10.8703 15.8775 10.9093 15.8902 10.9492 15.8902H11.9774C12.0165 15.8891 12.0544 15.876 12.0858 15.8527C12.1172 15.8293 12.1406 15.7968 12.153 15.7597L12.4539 14.7301C12.6946 14.6609 12.9268 14.5649 13.1461 14.4438L14.094 14.9461C14.1293 14.9648 14.1696 14.972 14.2092 14.9666C14.2488 14.9612 14.2857 14.9435 14.3147 14.9159L15.047 14.1877C15.0745 14.1587 15.0922 14.1217 15.0976 14.0821C15.103 14.0424 15.0958 14.0021 15.0771 13.9667L14.5755 13.0226C14.6955 12.8025 14.7913 12.5702 14.8614 12.3295L15.8645 12.0231C15.9022 12.011 15.9353 11.9877 15.9595 11.9563C15.9837 11.9249 15.9978 11.8869 15.9999 11.8474V10.8078C16.0012 10.7714 15.9925 10.7353 15.9748 10.7035C15.9571 10.6716 15.9311 10.6452 15.8996 10.627ZM11.4709 12.9975C11.1393 12.9984 10.8149 12.9009 10.5388 12.7172C10.2626 12.5335 10.0472 12.2719 9.91959 11.9654C9.79203 11.659 9.75814 11.3216 9.82221 10.9959C9.88628 10.6702 10.0454 10.3708 10.2795 10.1357C10.5136 9.90062 10.8121 9.74036 11.1372 9.67523C11.4623 9.6101 11.7994 9.64302 12.1057 9.76983C12.4121 9.89664 12.6741 10.1116 12.8584 10.3876C13.0427 10.6636 13.141 10.9881 13.141 11.32C13.1411 11.764 12.9652 12.1899 12.6522 12.5044C12.3391 12.8188 11.9143 12.9961 11.4709 12.9975Z" fill="#4770FF"/>
</svg>
