<svg width="18" height="18" viewBox="0 0 18 18" fill="none" xmlns="http://www.w3.org/2000/svg">
<path d="M16.0714 12.9409V10.2802C16.0714 9.9394 15.936 9.61255 15.6948 9.37156C15.4537 9.13057 15.1267 8.99519 14.7857 8.99519H9.64286V6.42513H10.9286C11.2695 6.42479 11.5963 6.2893 11.8373 6.04838C12.0784 5.80747 12.2139 5.48081 12.2143 5.14011V1.28503C12.2139 0.944321 12.0784 0.617667 11.8373 0.376751C11.5963 0.135836 11.2695 0.000340196 10.9286 0H7.07143C6.73054 0.000340196 6.40371 0.135836 6.16267 0.376751C5.92163 0.617667 5.78606 0.944321 5.78572 1.28503V5.14011C5.78606 5.48081 5.92163 5.80747 6.16267 6.04838C6.40371 6.2893 6.73054 6.42479 7.07143 6.42513H8.35714V8.99519H3.21429C2.8733 8.99519 2.54627 9.13057 2.30515 9.37156C2.06403 9.61255 1.92858 9.9394 1.92858 10.2802V12.9415C1.32258 13.0979 0.794455 13.4698 0.44319 13.9875C0.0919257 14.5052 -0.0583608 15.1332 0.0205013 15.7538C0.0993634 16.3743 0.40196 16.9448 0.87157 17.3583C1.34118 17.7719 1.94556 18 2.57143 18C3.1973 18 3.80169 17.7719 4.2713 17.3583C4.74091 16.9448 5.0435 16.3743 5.12236 15.7538C5.20123 15.1332 5.05094 14.5052 4.69968 13.9875C4.34841 13.4698 3.82028 13.0979 3.21429 12.9415V10.2802H8.35714V12.9415C7.75115 13.0979 7.22302 13.4698 6.87176 13.9875C6.52049 14.5052 6.37021 15.1332 6.44907 15.7538C6.52793 16.3743 6.83053 16.9448 7.30014 17.3583C7.76975 17.7719 8.37413 18 9 18C9.62587 18 10.2303 17.7719 10.6999 17.3583C11.1695 16.9448 11.4721 16.3743 11.5509 15.7538C11.6298 15.1332 11.4795 14.5052 11.1282 13.9875C10.777 13.4698 10.2489 13.0979 9.64286 12.9415V10.2802H14.7857V12.9409C14.1797 13.0972 13.6516 13.4692 13.3003 13.9869C12.9491 14.5046 12.7988 15.1326 12.8776 15.7531C12.9565 16.3737 13.2591 16.9442 13.7287 17.3577C14.1983 17.7712 14.8027 17.9994 15.4286 17.9994C16.0544 17.9994 16.6588 17.7712 17.1284 17.3577C17.598 16.9442 17.9006 16.3737 17.9795 15.7531C18.0584 15.1326 17.9081 14.5046 17.5568 13.9869C17.2055 13.4692 16.6774 13.0972 16.0714 12.9409ZM7.07143 1.28503H10.9286L10.9292 5.14011H7.07143V1.28503ZM3.85715 15.4203C3.85715 15.6745 3.78174 15.9229 3.64046 16.1342C3.49919 16.3456 3.29839 16.5103 3.06345 16.6075C2.82852 16.7048 2.57001 16.7302 2.3206 16.6807C2.0712 16.6311 1.84211 16.5087 1.6623 16.329C1.48249 16.1493 1.36003 15.9203 1.31042 15.671C1.26081 15.4217 1.28628 15.1634 1.38359 14.9286C1.4809 14.6938 1.64569 14.4931 1.85713 14.3519C2.06856 14.2107 2.31714 14.1353 2.57143 14.1353C2.91232 14.1356 3.23915 14.2711 3.48019 14.512C3.72124 14.753 3.85681 15.0796 3.85715 15.4203ZM10.2857 15.4203C10.2857 15.6745 10.2103 15.9229 10.069 16.1342C9.92776 16.3456 9.72696 16.5103 9.49202 16.6075C9.25709 16.7048 8.99857 16.7302 8.74917 16.6807C8.49977 16.6311 8.27067 16.5087 8.09086 16.329C7.91105 16.1493 7.7886 15.9203 7.73899 15.671C7.68938 15.4217 7.71484 15.1634 7.81216 14.9286C7.90947 14.6938 8.07426 14.4931 8.2857 14.3519C8.49713 14.2107 8.74571 14.1353 9 14.1353C9.34084 14.1358 9.66757 14.2714 9.90857 14.5122C10.1496 14.7531 10.2852 15.0797 10.2857 15.4203ZM15.4286 16.7053C15.1743 16.7053 14.9257 16.63 14.7143 16.4888C14.5028 16.3476 14.338 16.1469 14.2407 15.9121C14.1434 15.6773 14.1179 15.4189 14.1676 15.1696C14.2172 14.9204 14.3396 14.6914 14.5194 14.5117C14.6992 14.332 14.9283 14.2096 15.1777 14.16C15.4271 14.1104 15.6857 14.1358 15.9206 14.2331C16.1555 14.3304 16.3563 14.4951 16.4976 14.7064C16.6389 14.9177 16.7143 15.1662 16.7143 15.4203C16.7139 15.761 16.5784 16.0877 16.3373 16.3286C16.0963 16.5695 15.7695 16.705 15.4286 16.7053Z" fill="#4770FF"/>
</svg>
