<svg width="42" height="40" viewBox="0 0 42 40" fill="none" xmlns="http://www.w3.org/2000/svg">
<path d="M3.71715 22.4288L22.5743 22.4305C23.439 22.4307 24.2717 22.7575 24.9056 23.3456C25.5395 23.9338 25.9277 24.7397 25.9926 25.6019L26.0029 25.8591V30.1431C26.0011 37.3431 18.6537 39.5716 13.1457 39.5716C7.74743 39.5716 0.581717 37.4322 0.297146 30.5682L0.288574 30.1431V25.8574C0.288574 24.0505 1.68743 22.5694 3.46 22.4391L3.71715 22.4288ZM26.38 22.4305L38.0029 22.4288C39.8097 22.4288 41.2909 23.8276 41.4211 25.6002L41.4314 25.8574V29.2859C41.4297 35.7299 35.5514 37.8573 31.1457 37.8573C29.332 37.8573 27.2731 37.4888 25.4731 36.6145C26.7623 35.0819 27.5989 33.1311 27.7051 30.6762L27.7171 30.1431V25.8591C27.7171 24.6556 27.2903 23.5619 26.596 22.6876L26.38 22.4288H38.0029L26.38 22.4305ZM13.1457 0.143066C14.384 0.143179 15.6101 0.38719 16.7541 0.861167C17.8981 1.33514 18.9376 2.0298 19.8131 2.90549C20.6886 3.78117 21.3831 4.82073 21.8568 5.9648C22.3306 7.10887 22.5744 8.33506 22.5743 9.57335C22.5742 10.8116 22.3302 12.0378 21.8562 13.1818C21.3822 14.3258 20.6875 15.3652 19.8119 16.2407C18.9362 17.1162 17.8966 17.8107 16.7526 18.2845C15.6085 18.7582 14.3823 19.002 13.144 19.0019C10.6432 19.0017 8.24484 18.008 6.47664 16.2395C4.70844 14.471 3.7152 12.0725 3.71543 9.57164C3.71566 7.0708 4.70933 4.67248 6.47785 2.90428C8.24637 1.13608 10.6449 0.142839 13.1457 0.143066ZM32.0029 3.57164C33.0159 3.57164 34.019 3.77117 34.955 4.15885C35.8909 4.54653 36.7413 5.11476 37.4577 5.8311C38.174 6.54744 38.7422 7.39785 39.1299 8.33379C39.5176 9.26973 39.7171 10.2729 39.7171 11.2859C39.7171 12.299 39.5176 13.3021 39.1299 14.2381C38.7422 15.174 38.174 16.0244 37.4577 16.7407C36.7413 17.4571 35.8909 18.0253 34.955 18.413C34.019 18.8007 33.0159 19.0002 32.0029 19.0002C29.9569 19.0002 27.9947 18.1875 26.548 16.7407C25.1013 15.294 24.2886 13.3319 24.2886 11.2859C24.2886 9.23997 25.1013 7.27781 26.548 5.8311C27.9947 4.38439 29.9569 3.57164 32.0029 3.57164Z" fill="#4770FF"/>
</svg>
