<svg width="18" height="14" viewBox="0 0 18 14" fill="none" xmlns="http://www.w3.org/2000/svg">
<path d="M2.11765 0C1.55601 0 1.01738 0.223109 0.620244 0.620244C0.223109 1.01738 0 1.55601 0 2.11765V6.35294C0 6.91458 0.223109 7.45321 0.620244 7.85034C1.01738 8.24748 1.55601 8.47059 2.11765 8.47059H8.478C8.47313 8.29416 8.47066 8.11767 8.47059 7.94118V4.23529C11.8906 4.23529 12.4391 3.35118 12.8266 2.72541C13.0384 2.38235 13.2025 2.11765 13.7647 2.11765C14.3259 2.11765 14.4911 2.38235 14.7028 2.72541C14.9114 3.06106 15.1645 3.47082 15.8824 3.77894V2.11765C15.8824 1.55601 15.6592 1.01738 15.2621 0.620244C14.865 0.223109 14.3263 0 13.7647 0H2.11765ZM13.2671 4.05741C13.246 4.10346 13.2212 4.14772 13.1929 4.18976C13.0816 4.35053 12.9437 4.49123 12.7853 4.60588C12.3649 4.92141 11.5571 5.29412 10.0588 5.29412C9.91842 5.29412 9.78376 5.34989 9.68447 5.44918C9.58519 5.54846 9.52941 5.68312 9.52941 5.82353V7.94118C9.52941 9.036 9.66388 10.2039 10.26 11.2479C10.8667 12.3078 11.9096 13.1749 13.5974 13.7372C13.706 13.7733 13.8234 13.7733 13.932 13.7372C15.6198 13.176 16.6627 12.3078 17.2684 11.2489C17.8655 10.2039 18 9.036 18 7.94118V5.82353C18 5.68312 17.9442 5.54846 17.8449 5.44918C17.7457 5.34989 17.611 5.29412 17.4706 5.29412C15.9734 5.29412 15.1645 4.92141 14.7441 4.60588C14.5861 4.49114 14.4486 4.35044 14.3375 4.18976C14.3093 4.14806 14.2845 4.10416 14.2634 4.05847C14.2269 3.95551 14.1593 3.86638 14.0701 3.80331C13.9809 3.74024 13.8743 3.70632 13.7651 3.70621C13.6558 3.70609 13.5492 3.73978 13.4598 3.80266C13.3705 3.86554 13.3028 3.95453 13.266 4.05741H13.2671ZM14.2655 4.06482L14.2666 4.06694L14.2634 4.05847L14.2645 4.06165L14.2655 4.06482ZM13.2649 4.06165L13.266 4.05741L13.2628 4.068V4.06482L13.2649 4.06165Z" fill="#4770FF"/>
</svg>
